<svg xmlns="http://www.w3.org/2000/svg" width="1838.473" height="1710.319" viewBox="0 0 1838.473 1710.319">
  <g id="Group_16103" data-name="Group 16103" transform="translate(-1298.535 -730.419) rotate(38)">
    <path id="Path_11581" data-name="Path 11581" d="M3467.345-678.844l-1.3.885c20.974,105,6.513,197.282-18.991,244.853l.112-.079s-7.527,16.038-24.835,37.14c0,0-.075.09-.112.143-26.977,32.851-77.767,77.89-161.242,94.222-.947.182-1.894.385-2.833.562-.548.105-1.051.224-1.592.327l.1-.079C3149.8-281.2,3060.078-342.857,3023.9-375.612c-.052-.05-.113-.105-.158-.154-31.964-25.147-69.1-76.79-69.1-76.79-5.784-7.92-11.516-16.442-17.075-25.508-.128-.206-.256-.392-.376-.6q-3.178-5.2-6.25-10.637c-84.339-135.374-176.3-376-197.413-433.886l-.991-.175c-10.555.28-20.734.98-30.425,2.021,0,0-62.7,6.293-100.521,21.246l40.919,536.226c.067.582.135,1.17.21,1.76a.073.073,0,0,0,.008.036C2685.775,17.173,3174.346-184.2,3174.346-184.2,3575.438-320.626,3485.577-629.316,3467.345-678.844Z" transform="translate(-231.017 0)" fill="none" stroke="#00ad68" stroke-width="2"/>
    <path id="Path_11582" data-name="Path 11582" d="M2362.685,1403.9l.29-1.54c-89.073-59.422-144.1-134.9-159.7-186.573l-.026.136s-6.021-16.662-8.7-43.819c0,0-.011-.12-.019-.18-4.154-42.309-.086-110.069,47.395-180.646.537-.8,1.063-1.608,1.6-2.4.312-.458.586-.9.9-1.36l-.023.135c61.653-89.47,168.69-109.318,217.437-111.736.071,0,.154-.008.222-.008,40.382-4.815,103.157,5.439,103.157,5.439,9.687,1.517,19.768,3.486,30.109,5.964.233.06.458.1.688.158q5.922,1.432,11.941,3.1c155.36,36.089,390.537,141.2,446.394,167.214l.826-.578c7.265-7.662,13.965-15.355,20.084-22.942,0,0,39.89-48.792,56.056-86.105l-408.1-350.234c-.462-.361-.928-.729-1.393-1.1-.008-.008-.016-.008-.03-.023C2423.177,359.088,2220.1,846.953,2220.1,846.953,2032.955,1227.034,2314.772,1381.77,2362.685,1403.9Z" transform="translate(0 -755.397)" fill="none" stroke="#4dc2e1" stroke-width="2"/>
  </g>
</svg>
