<svg id="document-upload_bold" data-name="document-upload/bold" xmlns="http://www.w3.org/2000/svg" width="24" height="24" viewBox="0 0 24 24">
  <g id="vuesax_bold_document-upload" data-name="vuesax/bold/document-upload">
    <g id="document-upload">
      <path id="Vector" d="M18,8.19H15.11a4.306,4.306,0,0,1-4.3-4.3V1a1,1,0,0,0-1-1H5.57A5.277,5.277,0,0,0,0,5.57v8.86A5.277,5.277,0,0,0,5.57,20h7.86A5.277,5.277,0,0,0,19,14.43V9.19A1,1,0,0,0,18,8.19ZM9.03,11.53a.748.748,0,0,1-1.06,0l-.72-.72V15a.75.75,0,0,1-1.5,0V10.81l-.72.72a.75.75,0,0,1-1.06-1.06l2-2a1.071,1.071,0,0,1,.22-.15c.02-.01.05-.02.07-.03a1.062,1.062,0,0,1,.19-.04h.08a.687.687,0,0,1,.24.05h.02a.662.662,0,0,1,.22.15c.01.01.02.01.02.02l2,2A.754.754,0,0,1,9.03,11.53Z" transform="translate(2.5 2)" fill="#00ad68"/>
      <path id="Vector-2" data-name="Vector" d="M2.75,6.795c.95.01,2.27.01,3.4.01a.631.631,0,0,0,.47-1.07C5.18,4.285,2.6,1.675,1.12.195A.654.654,0,0,0,0,.635v3.49A2.726,2.726,0,0,0,2.75,6.795Z" transform="translate(14.68 2.015)" fill="#00ad68"/>
      <path id="Vector-3" data-name="Vector" d="M0,0H24V24H0Z" transform="translate(24 24) rotate(180)" fill="#00ad68" opacity="0"/>
    </g>
  </g>
</svg>
