<svg xmlns="http://www.w3.org/2000/svg" width="296.393" height="65.011" viewBox="0 0 296.393 65.011">
  <g id="Group_16074" data-name="Group 16074" transform="translate(-4 -618)">
    <g id="Group_16073" data-name="Group 16073" transform="translate(4 618)">
      <path id="Path_11530" data-name="Path 11530" d="M333.7,1831.153h-1.463v-8.181H333.7Zm-.768-9.66a.941.941,0,0,1-.669-.26,1.027,1.027,0,0,1,0-1.4.991.991,0,0,1,1.337,0,1.028,1.028,0,0,1,0,1.4.939.939,0,0,1-.669.26" transform="translate(-252.255 -1769.1)" fill="#114d97"/>
      <path id="Path_11531" data-name="Path 11531" d="M346,1825.227q.5-.125,1.337-.268a11.6,11.6,0,0,1,1.919-.142,4.15,4.15,0,0,1,1.621.276,2.539,2.539,0,0,1,1.03.771,2.983,2.983,0,0,1,.543,1.188,6.9,6.9,0,0,1,.157,1.525v4.594h-1.463v-4.279a6.974,6.974,0,0,0-.1-1.29,2.178,2.178,0,0,0-.339-.865,1.326,1.326,0,0,0-.629-.479,2.755,2.755,0,0,0-.975-.15c-.157,0-.32,0-.488.015s-.328.024-.48.04-.289.034-.41.055l-.259.047v6.906H346Z" transform="translate(-257.649 -1771.118)" fill="#114d97"/>
      <path id="Path_11532" data-name="Path 11532" d="M368.845,1832.1a2.877,2.877,0,0,0,1.329-.236.8.8,0,0,0,.432-.755,1,1,0,0,0-.424-.849,6.746,6.746,0,0,0-1.4-.708q-.472-.188-.9-.385a3.15,3.15,0,0,1-.747-.464,2.036,2.036,0,0,1-.5-.645,2.289,2.289,0,0,1,.614-2.652,3.425,3.425,0,0,1,2.187-.637,6.279,6.279,0,0,1,.693.039q.346.04.645.095t.528.118c.151.042.269.079.354.11l-.267,1.259a3.721,3.721,0,0,0-.74-.26,4.764,4.764,0,0,0-1.212-.134,2.24,2.24,0,0,0-1.07.244.808.808,0,0,0-.456.763,1.036,1.036,0,0,0,.1.472,1.092,1.092,0,0,0,.315.37,2.567,2.567,0,0,0,.527.307q.315.141.755.3.581.22,1.038.433a3.236,3.236,0,0,1,.779.495,1.9,1.9,0,0,1,.5.685,2.477,2.477,0,0,1,.173.984,1.95,1.95,0,0,1-.843,1.714,4.184,4.184,0,0,1-2.4.583,6.3,6.3,0,0,1-1.7-.181c-.408-.121-.687-.213-.834-.276l.268-1.259q.251.094.8.284a4.639,4.639,0,0,0,1.463.189" transform="translate(-265.466 -1771.099)" fill="#114d97"/>
      <path id="Path_11533" data-name="Path 11533" d="M390.918,1833.044q-.5.126-1.329.268a11.471,11.471,0,0,1-1.912.141,4.064,4.064,0,0,1-1.588-.275,2.568,2.568,0,0,1-1.039-.779,3.158,3.158,0,0,1-.566-1.187,6.188,6.188,0,0,1-.173-1.519V1825.1h1.463v4.279a3.708,3.708,0,0,0,.472,2.14,1.836,1.836,0,0,0,1.588.645q.236,0,.488-.015c.168-.01.325-.024.472-.039s.28-.031.4-.047a1.16,1.16,0,0,0,.259-.055V1825.1h1.463Z" transform="translate(-272.394 -1771.227)" fill="#114d97"/>
      <path id="Path_11534" data-name="Path 11534" d="M408.723,1824.817c.126,0,.269.008.433.024s.322.037.48.063.3.053.432.079a2.714,2.714,0,0,1,.292.071l-.252,1.274a4.915,4.915,0,0,0-.574-.149,5.061,5.061,0,0,0-1.031-.087,3.864,3.864,0,0,0-.811.087c-.267.058-.443.1-.526.118v6.875H405.7v-7.835a10.009,10.009,0,0,1,1.29-.354,8.279,8.279,0,0,1,1.73-.166" transform="translate(-280.629 -1771.118)" fill="#114d97"/>
      <path id="Path_11535" data-name="Path 11535" d="M424.63,1832.1q.519,0,.92-.024a3.979,3.979,0,0,0,.669-.086v-2.439a1.872,1.872,0,0,0-.512-.133,5.943,5.943,0,0,0-1.557-.009,2.191,2.191,0,0,0-.677.2,1.456,1.456,0,0,0-.511.409,1.072,1.072,0,0,0-.2.684,1.175,1.175,0,0,0,.5,1.094,2.624,2.624,0,0,0,1.369.307m-.126-7.332a4.246,4.246,0,0,1,1.487.228,2.411,2.411,0,0,1,.975.645,2.445,2.445,0,0,1,.528.991,4.8,4.8,0,0,1,.157,1.267v5.113l-.528.085q-.338.056-.762.1t-.921.087q-.494.039-.983.039a5.4,5.4,0,0,1-1.274-.141,2.851,2.851,0,0,1-1.008-.448,2.044,2.044,0,0,1-.661-.811,2.832,2.832,0,0,1-.236-1.211,2.33,2.33,0,0,1,.276-1.165,2.181,2.181,0,0,1,.747-.786,3.455,3.455,0,0,1,1.1-.441,5.983,5.983,0,0,1,1.321-.142,4.49,4.49,0,0,1,.457.024c.157.015.307.037.448.063l.37.071c.1.022.178.037.22.047v-.408a3.257,3.257,0,0,0-.079-.716,1.644,1.644,0,0,0-.283-.63,1.439,1.439,0,0,0-.558-.44,2.186,2.186,0,0,0-.921-.166,6.892,6.892,0,0,0-1.266.1,4.429,4.429,0,0,0-.81.212l-.173-1.212a4.609,4.609,0,0,1,.944-.244,8.138,8.138,0,0,1,1.432-.118" transform="translate(-286.625 -1771.099)" fill="#114d97"/>
      <path id="Path_11536" data-name="Path 11536" d="M442.228,1825.227q.5-.125,1.337-.268a11.614,11.614,0,0,1,1.919-.142,4.148,4.148,0,0,1,1.621.276,2.542,2.542,0,0,1,1.031.771,2.99,2.99,0,0,1,.542,1.188,6.9,6.9,0,0,1,.157,1.525v4.594h-1.463v-4.279a6.971,6.971,0,0,0-.1-1.29,2.178,2.178,0,0,0-.339-.865,1.328,1.328,0,0,0-.628-.479,2.767,2.767,0,0,0-.976-.15c-.157,0-.32,0-.487.015s-.328.024-.48.04-.288.034-.409.055l-.26.047v6.906h-1.463Z" transform="translate(-294.689 -1771.118)" fill="#114d97"/>
      <path id="Path_11537" data-name="Path 11537" d="M466.83,1833.341a4.447,4.447,0,0,1-1.739-.315,3.5,3.5,0,0,1-1.258-.88,3.659,3.659,0,0,1-.763-1.346,5.573,5.573,0,0,1-.252-1.722,5.2,5.2,0,0,1,.276-1.731,4.079,4.079,0,0,1,.779-1.361,3.488,3.488,0,0,1,1.234-.9,4,4,0,0,1,1.629-.322,6.453,6.453,0,0,1,1.1.094,5.094,5.094,0,0,1,1.054.3l-.33,1.243a3.491,3.491,0,0,0-.763-.252,4.323,4.323,0,0,0-.92-.095,2.327,2.327,0,0,0-1.88.771,3.4,3.4,0,0,0-.653,2.25,4.623,4.623,0,0,0,.149,1.211,2.514,2.514,0,0,0,.472.944,2.1,2.1,0,0,0,.826.605,3.15,3.15,0,0,0,1.228.212,4.659,4.659,0,0,0,1.054-.11,3.8,3.8,0,0,0,.739-.236l.2,1.227a1.561,1.561,0,0,1-.362.149,5.061,5.061,0,0,1-.534.126c-.2.036-.411.068-.637.094a5.575,5.575,0,0,1-.653.039" transform="translate(-302.615 -1771.099)" fill="#114d97"/>
      <path id="Path_11538" data-name="Path 11538" d="M486.978,1828.275a2.458,2.458,0,0,0-.5-1.629,1.707,1.707,0,0,0-1.408-.636,1.929,1.929,0,0,0-.889.2,2.081,2.081,0,0,0-.653.511,2.354,2.354,0,0,0-.416.723,3.569,3.569,0,0,0-.2.834Zm-5.616.8a5.213,5.213,0,0,1,.315-1.9,3.957,3.957,0,0,1,.833-1.345,3.4,3.4,0,0,1,1.2-.8,3.744,3.744,0,0,1,1.385-.267,3.147,3.147,0,0,1,2.533,1.031,4.736,4.736,0,0,1,.881,3.138v.244a2.107,2.107,0,0,1-.016.275h-5.6a2.994,2.994,0,0,0,.739,1.936,2.708,2.708,0,0,0,2.014.66,5.332,5.332,0,0,0,1.3-.134,4.536,4.536,0,0,0,.795-.26l.2,1.228a4.346,4.346,0,0,1-.936.3,6.642,6.642,0,0,1-1.517.157,4.815,4.815,0,0,1-1.849-.323,3.435,3.435,0,0,1-1.282-.889,3.622,3.622,0,0,1-.747-1.345,5.694,5.694,0,0,1-.244-1.707" transform="translate(-309.753 -1771.099)" fill="#114d97"/>
      <path id="Path_11539" data-name="Path 11539" d="M517.632,1830.031a4.582,4.582,0,0,0,.622.118,7.512,7.512,0,0,0,1,.055,2.426,2.426,0,0,0,1.888-.778,3.17,3.17,0,0,0,.708-2.21,5.3,5.3,0,0,0-.126-1.18,2.628,2.628,0,0,0-.409-.952,1.978,1.978,0,0,0-.731-.63,2.362,2.362,0,0,0-1.078-.228,2.882,2.882,0,0,0-1.1.2,3,3,0,0,0-.771.424Zm0-6.544a3.943,3.943,0,0,1,.81-.362,3.816,3.816,0,0,1,1.251-.189,3.708,3.708,0,0,1,1.565.315,3.248,3.248,0,0,1,1.156.881,3.9,3.9,0,0,1,.716,1.353,5.837,5.837,0,0,1,.244,1.731,5.17,5.17,0,0,1-.291,1.785,3.753,3.753,0,0,1-.826,1.345,3.634,3.634,0,0,1-1.29.85,4.585,4.585,0,0,1-1.7.3,10.352,10.352,0,0,1-1.81-.141q-.786-.142-1.289-.283v-11.1h1.463Z" transform="translate(-323.152 -1769.253)" fill="#114d97"/>
      <path id="Path_11540" data-name="Path 11540" d="M540.9,1824.817c.127,0,.27.008.433.024s.323.037.48.063.3.053.432.079a2.737,2.737,0,0,1,.291.071l-.252,1.274a4.934,4.934,0,0,0-.574-.149,5.057,5.057,0,0,0-1.031-.087,3.853,3.853,0,0,0-.81.087q-.4.086-.527.118v6.875h-1.463v-7.835a9.97,9.97,0,0,1,1.29-.354,8.283,8.283,0,0,1,1.73-.166" transform="translate(-331.511 -1771.118)" fill="#114d97"/>
      <path id="Path_11541" data-name="Path 11541" d="M559.816,1829.061a3.519,3.519,0,0,0-.621-2.195,2.169,2.169,0,0,0-3.382,0,4.187,4.187,0,0,0,0,4.389,2.169,2.169,0,0,0,3.382,0,3.516,3.516,0,0,0,.621-2.194m1.527,0a5.172,5.172,0,0,1-.284,1.762,4.039,4.039,0,0,1-.794,1.353,3.509,3.509,0,0,1-1.22.873,4.033,4.033,0,0,1-3.084,0,3.508,3.508,0,0,1-1.219-.873,4.027,4.027,0,0,1-.793-1.353,5.581,5.581,0,0,1,0-3.516,4.006,4.006,0,0,1,.793-1.36,3.5,3.5,0,0,1,1.219-.874,4.027,4.027,0,0,1,3.084,0,3.5,3.5,0,0,1,1.22.874,4.017,4.017,0,0,1,.794,1.36,5.2,5.2,0,0,1,.284,1.754" transform="translate(-337.585 -1771.099)" fill="#114d97"/>
      <path id="Path_11542" data-name="Path 11542" d="M578.084,1826.806a10,10,0,0,1,1,.9q.525.535,1.037,1.156c.341.415.663.834.969,1.258s.56.821.771,1.188h-1.715a13.073,13.073,0,0,0-.763-1.124q-.433-.574-.9-1.1a12.854,12.854,0,0,0-.959-.968,8.659,8.659,0,0,0-.929-.739v3.933h-1.463V1819.97h1.463v6.584l.834-.834q.457-.456.9-.927c.293-.315.571-.616.833-.9s.488-.543.677-.763h1.714q-.363.393-.787.865t-.881.951q-.457.481-.921.959l-.872.9" transform="translate(-345.847 -1769.253)" fill="#114d97"/>
      <path id="Path_11543" data-name="Path 11543" d="M599.338,1828.275a2.461,2.461,0,0,0-.5-1.629,1.708,1.708,0,0,0-1.408-.636,1.929,1.929,0,0,0-.889.2,2.08,2.08,0,0,0-.653.511,2.343,2.343,0,0,0-.417.723,3.6,3.6,0,0,0-.2.834Zm-5.617.8a5.213,5.213,0,0,1,.315-1.9,3.969,3.969,0,0,1,.834-1.345,3.389,3.389,0,0,1,1.2-.8,3.748,3.748,0,0,1,1.385-.267,3.147,3.147,0,0,1,2.533,1.031,4.74,4.74,0,0,1,.88,3.138v.244a2.237,2.237,0,0,1-.015.275h-5.6a2.994,2.994,0,0,0,.739,1.936,2.709,2.709,0,0,0,2.014.66,5.332,5.332,0,0,0,1.3-.134,4.51,4.51,0,0,0,.794-.26l.2,1.228a4.359,4.359,0,0,1-.936.3,6.645,6.645,0,0,1-1.517.157,4.81,4.81,0,0,1-1.849-.323,3.43,3.43,0,0,1-1.282-.889,3.614,3.614,0,0,1-.747-1.345,5.674,5.674,0,0,1-.244-1.707" transform="translate(-353.004 -1771.099)" fill="#114d97"/>
      <path id="Path_11544" data-name="Path 11544" d="M618.431,1824.817c.125,0,.269.008.433.024s.322.037.479.063.3.053.432.079a2.645,2.645,0,0,1,.292.071l-.252,1.274a4.848,4.848,0,0,0-.574-.149,5.05,5.05,0,0,0-1.03-.087,3.859,3.859,0,0,0-.811.087q-.4.086-.526.118v6.875H615.41v-7.835a10.048,10.048,0,0,1,1.291-.354,8.274,8.274,0,0,1,1.73-.166" transform="translate(-361.353 -1771.118)" fill="#114d97"/>
      <path id="Path_11545" data-name="Path 11545" d="M634.339,1832.1q.518,0,.919-.024a3.988,3.988,0,0,0,.669-.086v-2.439a1.878,1.878,0,0,0-.512-.133,5.942,5.942,0,0,0-1.557-.009,2.191,2.191,0,0,0-.677.2,1.456,1.456,0,0,0-.511.409,1.072,1.072,0,0,0-.2.684,1.175,1.175,0,0,0,.5,1.094,2.623,2.623,0,0,0,1.369.307m-.126-7.332a4.248,4.248,0,0,1,1.487.228,2.41,2.41,0,0,1,.975.645,2.443,2.443,0,0,1,.528.991,4.8,4.8,0,0,1,.158,1.267v5.113l-.528.085c-.225.038-.48.072-.762.1s-.59.06-.921.087-.658.039-.983.039a5.408,5.408,0,0,1-1.274-.141,2.854,2.854,0,0,1-1.007-.448,2.044,2.044,0,0,1-.661-.811,2.832,2.832,0,0,1-.236-1.211,2.33,2.33,0,0,1,.276-1.165,2.181,2.181,0,0,1,.747-.786,3.455,3.455,0,0,1,1.1-.441,5.983,5.983,0,0,1,1.321-.142,4.491,4.491,0,0,1,.457.024c.157.015.307.037.448.063l.37.071c.1.022.178.037.22.047v-.408a3.3,3.3,0,0,0-.079-.716,1.639,1.639,0,0,0-.284-.63,1.437,1.437,0,0,0-.558-.44,2.188,2.188,0,0,0-.921-.166,6.892,6.892,0,0,0-1.266.1,4.418,4.418,0,0,0-.81.212l-.173-1.212a4.586,4.586,0,0,1,.944-.244,8.133,8.133,0,0,1,1.432-.118" transform="translate(-367.35 -1771.099)" fill="#114d97"/>
      <path id="Path_11546" data-name="Path 11546" d="M656.763,1826.28a4.77,4.77,0,0,0-.59-.117,7.059,7.059,0,0,0-1-.055,2.224,2.224,0,0,0-1.818.771,3.113,3.113,0,0,0-.637,2.045,3.611,3.611,0,0,0,.18,1.211,2.391,2.391,0,0,0,.488.834,1.906,1.906,0,0,0,.708.488,2.248,2.248,0,0,0,.825.157,3.314,3.314,0,0,0,1.07-.166,2.626,2.626,0,0,0,.771-.385Zm.015,6.073a3.864,3.864,0,0,1-.731.322,3.71,3.71,0,0,1-1.266.2,4.059,4.059,0,0,1-1.392-.236,3.012,3.012,0,0,1-1.141-.731,3.518,3.518,0,0,1-.771-1.235,4.925,4.925,0,0,1-.284-1.763,4.845,4.845,0,0,1,.268-1.644,3.659,3.659,0,0,1,.779-1.29,3.569,3.569,0,0,1,1.251-.849,4.306,4.306,0,0,1,1.667-.308,9.4,9.4,0,0,1,1.786.15q.762.149,1.282.275v7.3a3.453,3.453,0,0,1-.975,2.737,4.407,4.407,0,0,1-2.958.85,8.083,8.083,0,0,1-1.455-.126,8.468,8.468,0,0,1-1.188-.3l.268-1.274a6.84,6.84,0,0,0,1.078.307,6.444,6.444,0,0,0,1.329.134,2.769,2.769,0,0,0,1.88-.519,2.125,2.125,0,0,0,.574-1.652Z" transform="translate(-375.128 -1771.118)" fill="#114d97"/>
      <path id="Path_11547" data-name="Path 11547" d="M678.245,1828.275a2.46,2.46,0,0,0-.5-1.629,1.708,1.708,0,0,0-1.408-.636,1.929,1.929,0,0,0-.889.2,2.085,2.085,0,0,0-.653.511,2.354,2.354,0,0,0-.416.723,3.509,3.509,0,0,0-.2.834Zm-5.616.8a5.226,5.226,0,0,1,.315-1.9,3.949,3.949,0,0,1,.834-1.345,3.392,3.392,0,0,1,1.2-.8,3.738,3.738,0,0,1,1.384-.267,3.149,3.149,0,0,1,2.533,1.031,4.736,4.736,0,0,1,.881,3.138v.244a2.344,2.344,0,0,1-.016.275h-5.6a2.994,2.994,0,0,0,.74,1.936,2.707,2.707,0,0,0,2.013.66,5.332,5.332,0,0,0,1.3-.134,4.519,4.519,0,0,0,.795-.26l.2,1.228a4.343,4.343,0,0,1-.937.3,6.637,6.637,0,0,1-1.517.157,4.815,4.815,0,0,1-1.849-.323,3.438,3.438,0,0,1-1.282-.889,3.613,3.613,0,0,1-.747-1.345,5.674,5.674,0,0,1-.244-1.707" transform="translate(-383.379 -1771.099)" fill="#114d97"/>
      <path id="Path_11548" data-name="Path 11548" d="M414.744,1764.723c-7.806,0-13.1,6.039-13.1,14.985,0,8.661,5.07,13.789,13.617,13.789a16.461,16.461,0,0,0,9.686-2.849v-4.672a13.6,13.6,0,0,1-9.116,3.248c-4.449,0-7.526-1.981-8.7-5.43l0,.025c-.018-.055-.028-.111-.045-.167a9.742,9.742,0,0,1-.376-1.7c-.011-.076-.018-.15-.028-.225-.015-.136-.033-.27-.044-.409a17.282,17.282,0,0,1,1.178-7.808v.015a7.042,7.042,0,0,1,6.875-4.526c3.874,0,6.041,2.222,6.44,6.495H409.258v4.045h17.05v-1.311c0-4.043-.51-6.552-1.935-8.659-2-3.134-5.358-4.844-9.63-4.844" transform="translate(-279.065 -1747.986)" fill="#114d97"/>
      <path id="Path_11549" data-name="Path 11549" d="M578.5,1764.723a19.665,19.665,0,0,0-10.2,3.019v4.789c3.364-2.451,6.152-3.534,9.175-3.534,1.763,0,3.018.512,3.644,1.6.4.741.513,1.765.513,4.387v13.788a30.668,30.668,0,0,1-5.412.683c-3.02,0-4.5-1.309-4.5-3.931,0-3.15,2.065-4.675,7.455-5.386v-3.995c-8.851,1.081-12.411,3.895-12.411,9.665,0,5.072,2.909,7.522,8.89,7.522a65.681,65.681,0,0,0,9.971-.911l.967-.116v-17.49c0-3.648-.228-5.243-.854-6.552-1.14-2.338-3.591-3.535-7.237-3.535" transform="translate(-342.625 -1747.986)" fill="#114d97"/>
      <path id="Path_11550" data-name="Path 11550" d="M608.128,1766.981v25.927h5.3v-22.564a14,14,0,0,1,5.756-1.252,11.264,11.264,0,0,1,4.559.91v-4.442a14.2,14.2,0,0,0-4.788-.741,29.643,29.643,0,0,0-10.826,2.162" transform="translate(-358.55 -1748.023)" fill="#114d97"/>
      <path id="Path_11551" data-name="Path 11551" d="M657.835,1777.453l12.076-11.927h-6.663l-11.328,11.2v1.461l13.218,14.974H671.8Z" transform="translate(-375.407 -1748.295)" fill="#114d97"/>
      <rect id="Rectangle_6248" data-name="Rectangle 6248" width="5.298" height="41.483" transform="translate(268.754 3.402)" fill="#114d97"/>
      <path id="Path_11552" data-name="Path 11552" d="M525.844,1764.819a21.286,21.286,0,0,0-8.945,1.936,13.13,13.13,0,0,0-7.463-1.936,40.864,40.864,0,0,0-11.791,1.879v26.21h5.3V1770a17.242,17.242,0,0,1,5.585-.91c4.443,0,6.151,1.765,6.151,6.323v17.493h5.3v-17.948a14.163,14.163,0,0,0-.513-4.729,14.608,14.608,0,0,1,5.583-1.138c4.049,0,5.758,1.821,5.758,6.323v17.493h5.3v-18.062c0-3.533-.574-5.529-2.055-7.125-1.65-1.88-4.557-2.9-8.2-2.9" transform="translate(-316.021 -1748.023)" fill="#114d97"/>
      <path id="Path_11553" data-name="Path 11553" d="M467.422,1757.061v23.077a17.566,17.566,0,0,1-4.5.513c-5.985,0-9.29-3.476-9.29-9.746,0-6.381,3.59-10.14,9.688-10.14a14.755,14.755,0,0,1,1.635.094V1756.6a17.406,17.406,0,0,0-1.921-.109c-8.945,0-14.7,5.811-14.7,14.814,0,8.831,5.072,13.618,14.474,13.618a44.1,44.1,0,0,0,9.914-1.2v-40.685h-5.3Z" transform="translate(-297.04 -1739.64)" fill="#114d97"/>
      <path id="Path_11554" data-name="Path 11554" d="M368.941,1767.62c-1.659-1.889-4.594-2.929-8.264-2.929a21.448,21.448,0,0,0-8.939,1.926,13.2,13.2,0,0,0-7.468-1.926,41.173,41.173,0,0,0-11.818,1.881l-.056.017v26.348h5.456v-22.927a17.009,17.009,0,0,1,5.5-.89c4.371,0,6.074,1.75,6.074,6.244v17.572h5.456V1774.91a14.354,14.354,0,0,0-.495-4.682,14.563,14.563,0,0,1,5.488-1.107c4.032,0,5.676,1.809,5.676,6.244v17.572h5.456V1774.8c0-3.561-.581-5.574-2.071-7.177" transform="translate(-252.411 -1747.974)" fill="#114d97"/>
      <path id="Path_11555" data-name="Path 11555" d="M238.252,1737.761c-22.14,1.464-21.751,18.317-21.5,21.035l.076-.026c.36-5.594,2.342-10.065,4.276-12.124l-.007,0a10.4,10.4,0,0,1,1.757-1.54l.008-.005a14.287,14.287,0,0,1,9.423-2.577c.05,0,.1.005.151.009l.085,0-.007,0c5.672.453,9.373,4.793,10.754,6.935v0a24.645,24.645,0,0,1,2.452,4.815c.165.429.321.884.465,1.356.021.068.043.132.063.2q.09.306.172.622c2.428,7.982,3.818,21.385,4.1,24.6h0c.541.13,1.068.232,1.575.312a24.656,24.656,0,0,0,5.4.285l5.159-27.555.011-.061,0-.015.026.012v-.007c0-.031.009-.061.014-.092v0c2.959-19.745-24.452-16.184-24.452-16.184" transform="translate(-207.873 -1737.511)" fill="#00ad68"/>
      <path id="Path_11556" data-name="Path 11556" d="M246.234,1821.442,224.951,1803.2c-1.166,2.266-3.075,7.643-.63,12.783l-.006-.005c.012.026.025.05.038.076.022.046.045.09.067.135a14.292,14.292,0,0,0,6.943,6.872l.009,0a10.385,10.385,0,0,0,2.213.751l-.006,0c2.754.646,7.624.124,12.655-2.368" transform="translate(-210.352 -1762.796)" fill="#114d97"/>
      <path id="Path_11557" data-name="Path 11557" d="M291.423,1764.39l-.011.061.024.017.015-.081-.026-.012,0,.015" transform="translate(-236.635 -1747.852)" fill="#4dc2e1"/>
      <path id="Path_11558" data-name="Path 11558" d="M266.313,1764.394l-.015.081c4.659,3.108,7.538,7.057,8.353,9.76l0-.007a10.4,10.4,0,0,1,.455,2.292v.009a14.281,14.281,0,0,1-2.479,9.449c-.028.042-.055.084-.084.125-.016.024-.03.047-.047.071l0-.007c-3.225,4.68-8.824,5.718-11.374,5.844h-.012a24.647,24.647,0,0,1-5.4-.285c-.507-.079-1.034-.182-1.575-.312l-.036-.008c-.207-.051-.415-.1-.625-.162-8.127-1.888-20.429-7.386-23.35-8.747l-.043.03c-.38.4-.731.8-1.051,1.2a24.81,24.81,0,0,0-2.932,4.5l21.348,18.32.073.058h0c15.62,12.435,26.242-13.085,26.242-13.085,9.789-19.882-4.952-27.975-7.458-29.134" transform="translate(-211.496 -1747.859)" fill="#4dc2e1"/>
      <path id="Path_11559" data-name="Path 11559" d="M238.234,1803.647c-5.031,2.492-9.9,3.014-12.655,2.368l0,0a10.387,10.387,0,0,1-2.212-.751l-.009,0a14.292,14.292,0,0,1-6.943-6.872c-.022-.045-.046-.09-.067-.135-.013-.026-.026-.05-.038-.076l.006,0c-2.444-5.14-.535-10.517.63-12.783,0-.009.009-.017.012-.026a24.808,24.808,0,0,1,2.932-4.5c.32-.4.67-.8,1.051-1.2l.033-.035q.22-.231.453-.46c5.7-6.094,16.61-14,19.25-15.849l-.017-.187c-.145-.472-.3-.928-.465-1.356a24.7,24.7,0,0,0-2.452-4.815l-26.442,9.31-.058.022-.014.005,0-.019-.042.014-.086.035h0c-18.579,7.31-1.789,29.269-1.789,29.269,12.363,18.479,26.8,9.641,28.983,8.091l-.012-.01-.048-.04" transform="translate(-202.352 -1745.001)" fill="#004a97"/>
      <path id="Path_11560" data-name="Path 11560" d="M297.019,1776.57v-.007a10.369,10.369,0,0,0-.456-2.295v.007c-.816-2.7-3.694-6.651-8.354-9.76a.171.171,0,0,1-.024-.016l-5.159,27.555h.012c2.55-.126,8.149-1.165,11.374-5.845v.007c.017-.024.031-.047.047-.071.028-.041.056-.084.084-.125a14.283,14.283,0,0,0,2.479-9.449" transform="translate(-233.406 -1747.9)" fill="#0494c9"/>
      <path id="Path_11561" data-name="Path 11561" d="M243.3,1752.591c-1.381-2.142-5.082-6.482-10.754-6.936l.007,0-.085,0-.151-.01a14.284,14.284,0,0,0-9.423,2.578l-.008.006a10.373,10.373,0,0,0-1.757,1.54l.006,0c-1.934,2.06-3.915,6.531-4.276,12.124l-.076.027,0,.019.014-.006.058-.021,26.442-9.309Z" transform="translate(-207.909 -1740.625)" fill="#006550"/>
    </g>
  </g>
</svg>
