<svg xmlns="http://www.w3.org/2000/svg" width="89.9" height="89.8" viewBox="0 0 89.9 89.8">
  <g id="noun-face-id-1280936" transform="translate(-5 -5.1)">
    <g id="Group_16637" data-name="Group 16637">
      <path id="Path_11982" data-name="Path 11982" d="M92.7,68.8A2.22,2.22,0,0,0,90.5,71v9.2A10.285,10.285,0,0,1,80.2,90.5h-10a2.2,2.2,0,0,0,0,4.4h10A14.724,14.724,0,0,0,94.9,80.2V71A2.22,2.22,0,0,0,92.7,68.8Z" fill="#00ac68"/>
      <path id="Path_11983" data-name="Path 11983" d="M80.2,5.1h-10a2.2,2.2,0,0,0,0,4.4h10A10.285,10.285,0,0,1,90.5,19.8V30.5a2.2,2.2,0,1,0,4.4,0V19.8A14.724,14.724,0,0,0,80.2,5.1Z" fill="#00ac68"/>
      <path id="Path_11984" data-name="Path 11984" d="M68.9,48.9a2.843,2.843,0,0,0,2.8-2.7V39a2.734,2.734,0,0,0-2.8-2.8A2.8,2.8,0,0,0,66.1,39v7.1A2.8,2.8,0,0,0,68.9,48.9Z" fill="#00ac68"/>
      <path id="Path_11985" data-name="Path 11985" d="M63.7,68.3a18.876,18.876,0,0,1-13.3,5.6h-.8a18.7,18.7,0,0,1-13.3-5.6,2.192,2.192,0,0,0-3.1,3.1,23.021,23.021,0,0,0,16.4,6.9h.8a22.852,22.852,0,0,0,16.4-6.9,2.192,2.192,0,0,0-3.1-3.1Z" fill="#00ac68"/>
      <path id="Path_11986" data-name="Path 11986" d="M44.5,62.2H45a8.045,8.045,0,0,0,8.1-8V39a2.2,2.2,0,1,0-4.4,0V54.1A3.691,3.691,0,0,1,45,57.8h-.5a2.2,2.2,0,1,0,0,4.4Z" fill="#00ac68"/>
      <path id="Path_11987" data-name="Path 11987" d="M29.7,36.2A2.8,2.8,0,0,0,26.9,39v7.1a2.8,2.8,0,0,0,2.8,2.8,2.712,2.712,0,0,0,2.8-2.7V39A2.8,2.8,0,0,0,29.7,36.2Z" fill="#00ac68"/>
      <path id="Path_11988" data-name="Path 11988" d="M7.3,32.7a2.22,2.22,0,0,0,2.2-2.2V19.8A10.285,10.285,0,0,1,19.8,9.5h10a2.2,2.2,0,1,0,0-4.4h-10A14.724,14.724,0,0,0,5.1,19.8V30.5A2.22,2.22,0,0,0,7.3,32.7Z" fill="#00ac68"/>
      <path id="Path_11989" data-name="Path 11989" d="M29.7,90.5h-10A10.285,10.285,0,0,1,9.4,80.2V71A2.2,2.2,0,0,0,5,71v9.2A14.724,14.724,0,0,0,19.7,94.9h10a2.156,2.156,0,0,0,2.2-2.2A2.22,2.22,0,0,0,29.7,90.5Z" fill="#00ac68"/>
    </g>
  </g>
</svg>
