<svg id="vuesax_linear_user-tag" data-name="vuesax/linear/user-tag" xmlns="http://www.w3.org/2000/svg" width="24" height="24" viewBox="0 0 24 24">
  <g id="user-tag">
    <path id="Vector" d="M15,16.85h-.76a2.988,2.988,0,0,0-2.12.87l-1.71,1.69a2.022,2.022,0,0,1-2.83,0L5.87,17.72a3,3,0,0,0-2.12-.87H3a2.983,2.983,0,0,1-3-2.97V2.97A2.983,2.983,0,0,1,3,0H15a2.983,2.983,0,0,1,3,2.97V13.88A2.99,2.99,0,0,1,15,16.85Z" transform="translate(3 2.01)" fill="none" stroke="#4dc1e0" stroke-linecap="round" stroke-linejoin="round" stroke-width="2"/>
    <g id="Group">
      <path id="Vector-2" data-name="Vector" d="M4.66,2.33A2.33,2.33,0,1,1,2.33,0,2.33,2.33,0,0,1,4.66,2.33Z" transform="translate(9.67 5.34)" fill="none" stroke="#4dc1e0" stroke-linecap="round" stroke-linejoin="round" stroke-width="2"/>
      <path id="Vector-3" data-name="Vector" d="M8,3.26C8,1.46,6.21,0,4,0S0,1.46,0,3.26" transform="translate(8 12.4)" fill="none" stroke="#4dc1e0" stroke-linecap="round" stroke-linejoin="round" stroke-width="2"/>
    </g>
    <path id="Vector-4" data-name="Vector" d="M0,0H24V24H0Z" fill="none" opacity="0"/>
  </g>
</svg>
